<?xml version="1.0" encoding="UTF-8"?><svg id="Layer_1" xmlns="http://www.w3.org/2000/svg" viewBox="0 0 680 572"><defs><style>.cls-1{fill:#fff;}</style></defs><path d="m313.42,526.23c-22.47,0-61.08-10.5-114.74-31.2-89.65-34.59-130.33-58.28-131.89-76.81-1.05-12.48,15.22-22.16,34.06-33.36,22.68-13.49,48.39-28.77,52.65-53.78,4.79-28.15-12.56-52.33-29.33-75.71-16.04-22.37-31.2-43.49-26.8-66.78,3.44-18.22,18.78-35.94,46.91-54.17,19.35-12.55,38.53-18.65,58.64-18.65s38.01,6.49,51.95,11.71c9.24,3.46,16.54,6.19,22.36,6.19,3.51,0,6.23-1.03,8.33-3.14,4.15-4.18,6.04-12.93,5.94-27.54-.09-14.31,2.35-23.77,7.47-28.92,3.22-3.24,7.57-4.82,13.28-4.82,8.22,0,18.15,3.21,28.65,6.61,11.49,3.72,23.37,7.56,34.17,7.56,10.19,0,17.97-3.47,23.81-10.6,11.15-13.63,27.84-21.77,44.64-21.77s29.32,7.32,36.14,20.09c6.69,12.51,12.64,41.37-22.58,94.09-14.93,22.35-20.28,36.8-16.33,44.17,2.23,4.18,7.37,6.21,15.71,6.21,11.72,0,28.68-4,46.63-8.24,20.84-4.92,44.47-10.5,63.45-10.5,17.28,0,28.58,4.55,34.54,13.91,6.45,10.11,8.67,18.21,6.79,24.77-2.91,10.14-15.37,16.07-29.79,22.93-19.25,9.16-43.22,20.57-53.05,46.85-8.35,22.32,2.6,45.08,13.19,67.08,8.36,17.38,17,35.34,15.74,52.65-1.42,19.36-15.38,36.04-42.69,51-24.91,13.65-46.4,20.28-65.67,20.28-28.13,0-47.88-13.97-68.78-28.77-14.8-10.47-30.11-21.3-49.15-27.55-3.49-1.15-6.23-1.7-8.36-1.7-2.34,0-3.95.71-4.81,2.1-2.69,4.39,2.55,14.67,9.18,27.69,8.69,17.08,19.51,38.33,12.56,49.68-3.43,5.6-11.1,8.44-22.8,8.44h0Z"/><path class="cls-1" d="m443.53,51.55c15.95,0,28.96,7.23,35.7,19.82,5.26,9.85,6.44,22.25,3.5,36.87-3.38,16.81-12.15,35.88-26.06,56.7-15.25,22.83-20.45,37.03-16.36,44.68,2.33,4.36,7.61,6.48,16.15,6.48,11.78,0,28.77-4.01,46.75-8.25,20.82-4.91,44.41-10.48,63.34-10.49,17.08,0,28.24,4.47,34.11,13.67,6.37,9.98,8.57,17.95,6.73,24.36-2.85,9.92-15.21,15.81-29.53,22.62-19.34,9.2-43.4,20.65-53.3,47.13-8.42,22.52,2.57,45.38,13.21,67.48,8.33,17.32,16.95,35.22,15.69,52.4-.67,9.18-4.03,17.49-10.27,25.41-7.05,8.95-17.58,17.19-32.17,25.19-24.84,13.61-46.24,20.22-65.43,20.22-27.97,0-47.66-13.93-68.5-28.68-14.83-10.49-30.17-21.35-49.28-27.62-3.54-1.16-6.33-1.73-8.52-1.73-2.52,0-4.28.78-5.23,2.33-2.84,4.62,2.46,15.02,9.16,28.18,8.64,16.97,19.39,38.09,12.58,49.19-3.34,5.44-10.86,8.2-22.37,8.2-22.42,0-60.96-10.49-114.57-31.16-89.45-34.51-130.03-58.07-131.57-76.39-1.03-12.17,15.12-21.77,33.81-32.89,22.78-13.54,48.59-28.89,52.88-54.13,4.82-28.35-12.58-52.62-29.42-76.09-15.98-22.28-31.07-43.32-26.71-66.4,3.41-18.08,18.69-35.69,46.69-53.84,19.27-12.49,38.36-18.57,58.37-18.57s37.87,6.48,51.78,11.68c9.29,3.48,16.63,6.22,22.54,6.22,3.65,0,6.49-1.07,8.69-3.29,4.25-4.28,6.18-13.14,6.09-27.89-.09-14.17,2.31-23.52,7.33-28.57,3.12-3.14,7.35-4.67,12.92-4.67,8.15,0,18.03,3.2,28.5,6.58,11.53,3.73,23.45,7.58,34.33,7.58s18.26-3.53,24.2-10.79c11.06-13.52,27.6-21.59,44.26-21.59m0-1c-15.93,0-33.1,7.38-45.03,21.95-6.33,7.73-14.46,10.42-23.42,10.42-20.57,0-45.48-14.17-62.83-14.17-12.75,0-21.42,7.66-21.25,34.25.15,23.09-4.63,30.17-13.78,30.17-14.53,0-40.06-17.9-74.31-17.9-17.47,0-37.21,4.66-58.91,18.73-118.38,76.75,21.5,123.5,9,197s-215,64,45.5,164.5c58.64,22.62,94.24,31.23,114.93,31.23,66.08,0-20.04-87.91,5.87-87.91,2.02,0,4.71.53,8.2,1.68,45.65,14.97,69.68,56.34,118.09,56.34,17.87,0,39.08-5.65,65.91-20.34,99.5-54.5-7.5-113.5,14-171s109.5-42.5,76-95c-6.7-10.5-19.44-14.14-34.97-14.14-35.21,0-84.68,18.74-110.08,18.74-19.42,0-24.78-10.96,1.05-49.61,51.65-77.3,22.02-114.95-13.97-114.95h0Z"/></svg>